<svg xmlns="http://www.w3.org/2000/svg" version="1.1" xmlns:xlink="http://www.w3.org/1999/xlink" xmlns:svgjs="http://svgjs.dev/svgjs" width="1500" height="1687" viewBox="0 0 1500 1687"><g transform="matrix(1,0,0,1,0.000011718749760802893,0)"><svg viewBox="0 0 320 360" data-background-color="#ffffff" preserveAspectRatio="xMidYMid meet" height="1687" width="1500" xmlns="http://www.w3.org/2000/svg" xmlns:xlink="http://www.w3.org/1999/xlink"><g id="tight-bounds" transform="matrix(1,0,0,1,0.0000025000000505315256,0)"><svg viewBox="0 0 320 360" height="360" width="320"><g><svg></svg></g><g><svg viewBox="0 0 320 360" height="360" width="320"><g><path transform="translate(-19.44751,3.1739) scale(3.53591,3.53591)" d="M67.6 10.7c0.2 0 1.8 0.8 2.7 1.1-0.3 0.1-1-0.2-1.8-0.5 0.2 0 0.6 0.1 1 0.3-0.2-0.2-1.7-0.7-1.9-0.9M52.7 7.6c0.3-0.1 3.8 0.4 5.4 0.5 0.1-0.1-0.2-0.1-0.6-0.2 0.5-0.1 1.5 0.2 2.2 0.3-2.1 0.1-4.4-0.5-6.4-0.3-0.7 0-0.2-0.2-0.6-0.3M49.8 7.6c1.8 0 3.2 0 0.6 0.2-0.3-0.1-0.7-0.1-0.6-0.2M78.1 15.9c0.2 0 1 0.9 1.4 1.2-0.1 0.1-0.9-0.7-1.3-1 0.1 0.1 0 0-0.1-0.2M76.1 14.6c-0.8-0.7-1.1-0.7-1.2-1.1 0.7 0.4 1.2 0.8 1.2 1.1M63.2 8.3c0.1-0.1 0.3 0.1 0.8 0.2-0.6-0.1-0.5 0-0.3 0.2-0.7-0.1-0.9-0.2-0.7-0.4 0.4 0.2 0.5 0.1 0.2 0M34.8 9.5c0-0.1 0.4-0.3 0.7-0.4-0.3 0.2-0.2 0.3 0.3 0.1 0 0.1-0.6 0.3-1 0.5 0.2-0.1 0.4-0.4 0-0.2M65.2 7.3c-0.3 0.1-1.4-0.5-2.5-0.7-0.6-0.2 2.4 0.5 2.5 0.7M6.2 56.7c0.6 2.5 0.2 2.4 0 0M6.3 41.7c0.1-0.4 0.2-1.5 0.3-1.4-0.3 2.4-0.8 3.5-0.9 5.3 0.3-1.6-0.1 0.9-0.2 1.5 0.1 0.8 0.1-0.5 0.3-0.3 0.2 0.3-0.4 4.5-0.2 2.2-0.2 2.1 0 4.4 0.4 5-0.5 3.2 2 10.4 2.5 11.9 0.1 0.1 0-0.5 0.2-0.1 0.2 1.3 1.1 2.2 1.4 3.6 0.3 0.4 1.5 2.6 1.7 3.1 0.4 0.8 0.6 0.7 1 1.5 1.2 2.3 3.1 4.5 4.9 6.6 5.8 6.8 14.7 12.4 24.6 14.4 9.9 2.1 20.3 0.6 28.4-3.3 0.5-0.3 0.4-0.4 1-0.6 2.8-0.9 6.2-3.8 8.1-4.9 0.9-1 3.3-2.7 3.6-3.7 1.7-1.4 3.4-3.7 4.3-5.2 0.5-0.8 0.9-0.8 1.1-1.3-0.1 0 1.6-2.1 2.1-3.3-0.2 0-0.5 0.6-0.5 0 3.6-6.9 5.6-16.2 4.5-22.6 0.2 7.9-1.8 16.7-5.6 22.3-1.7 3.6-5.2 7.5-8.4 10.3-0.5 0.5-1 1.1-1.6 1.5-1.9 1.6-4 2.9-6.2 4.1-5.2 2.9-11 5.4-17.8 5.5 11.7-1 22.2-6.9 28-14.1-4.4 4.3-6.3 6-11.2 8.5-0.4 0.7-3.7 2.1-5.9 2.7 1.3-0.6 4-1.6 4.9-2.4-7.3 3.5-15.4 5.5-23 4.4 2.9 0 7 0.1 10.9-0.6 0.6-0.2 0.9-0.4 1.6-0.5 7.6-1.7 14.9-5.4 20.1-10.6-3 2.7-7.5 5.9-10.4 6.9 2.7-1.5 7.6-4.4 9.2-6.6-3.2 3.2-9.2 6.4-13 7.8-0.6 0.1 0.4-0.4-0.6 0-1.2 0.3-0.7 0.3-1 0.5-4.6 1.3-9.9 2.4-14.3 2-0.8-0.1-1.1-0.3-1.8-0.3-0.8-0.1-1.5-0.1-2.4-0.1-3.5-0.4-7.3-1.8-10.1-3-1.5-0.7-3-1.2-4.5-2.1-1.2-0.7-2.2-1.5-3.2-2.3-3.8-2.8-7-5.6-10-9.6-5.4-7.5-8.2-16.9-7.8-26.2 0.4-9.3 4.1-18.4 10-25.1-0.3 0.3 0.4-0.7 1-1.3 0 0.2-0.1 0.5 0.6-0.2 0.6-0.7-0.2-0.2 0.1-0.6 6.2-6.8 17-12.3 28.1-12.5 0.4-0.3 1.1-0.7 1.9-0.5 0 0.1-0.5 0.1-0.5 0.1 1.1-0.1 2.1-0.1 2.6 0.1 0.1-0.1-0.4-0.2 0-0.2 0.7 0.2 0.9 0 1.3 0.2-0.3 0-0.6 0-0.8 0.1 2.5 0 4.1 0.6 6.6 0.8-1.3-0.3-1.6-0.3-2.6-0.6 1.1 0.2 1.6 0.4 2.1 0.3-0.2 0-0.1-0.3 0.1-0.2 2 0.5 2.2 0.7 4.3 1.4 0.2-0.2-0.9-0.3-1.2-0.6 2 0.7 3.8 1.2 5 2-0.4-0.3-1.6-0.7-2.5-1.1-0.1 0.1 0.3 0.2 0.4 0.4-1-0.5-2.4-1-3.8-1.2 1.2 0.3 2 0.7 2.5 0.9-1.1-0.2-2.5-0.9-4.1-1.2 2.6 0.8 7.5 2.6 10.5 4.2-1.1-0.7-2.4-1.2-3.1-1.6 0.6 0.1 1.3 0.5 1.3 0.3 0.7 0.3 1.6 1 2.1 1.1-0.9-0.6-2.7-1.5-3.3-1.8 7.5 3.4 14.2 9.1 18.5 16.4 0.4 0.7 1 2.3 1.5 2.5-0.1-0.5-0.5-0.8-0.9-1.6 0.2 0 0.2-0.3 0-0.6-0.4-0.5 0 0.4-0.4-0.1-1.8-3.3-4-6.2-7.4-9.4 1.9 1.8 0.5 0.5 0.1-0.1 2.6 2.3 5.6 6.2 6.9 8.2-0.2-0.3-0.3-0.5-0.2-0.5 2.4 4.1 3.9 7.8 5.4 13.1 0.1 0.1 0-0.4 0.2-0.1 1 4.2 1.3 7.7 1.2 10.9 0.8-5.4-1-13.8-4.2-20.4-0.4-0.8-0.4-0.2-0.8-1.1 0-0.3-0.3-0.9-0.5-1.3-4-6.6-8.9-11.3-14.7-15 0.4 0.2 1.2 0.8 1.2 0.7-10.8-7.1-23.3-8.1-33.6-5.9-0.7 0.3-1 0.6-1.8 1 1.5-0.5 2.4-0.6 3.8-0.9 0.3-0.3-1.3 0.1-0.6-0.2 0.1 0.1 1.4-0.2 1.7-0.1 0 0.1-0.4 0.2-0.5 0.3 3.3-0.7 6.7-0.8 9.6-0.6-1.7 0.1-4.8-0.2-5.8 0.3 1-0.1 2.4-0.2 3.3-0.1-1.2 0-3.4 0.1-4.4 0.2-0.1-0.1 1.6-0.3 0.5-0.3-0.5 0.1-1.3 0.1-1.6 0.4-8.6 0.8-17 5.3-22.9 10.6-1.2 1-2.6 2.1-3.5 3.2-2.2 2.5-3.6 5-5.2 7.2 1-2.1 3.2-5.3 5.8-8 2.6-2.7 5.4-5 6.9-6.2 0 0.4 2.4-1.5 3.3-2.1-0.6 0.5 0.4-0.2 0.6-0.1 3.2-1.9 5.8-2.6 8.7-3.7-0.7 0.2-1.3 0.4-1.4 0.3 0.7-0.2 1.1-0.4 1-0.5-2.8 0.8-7.2 2.7-10.7 4.8 6.3-4.3 14.3-6.9 22.2-7 7.9-0.2 15.6 1.8 21.7 5 4.1 1.8 8 5.1 11.1 8.3 0.9 0.8 0.2-0.2 1.5 1.2-0.4-0.2-0.7-0.4-0.2 0.2 0.8 0.9-0.2-0.7 1.1 0.9-0.1 0-0.5-0.5-0.5-0.3 3.5 3.1 6.2 8.7 7.8 12.4-0.4-1.5-1.4-3.6-2.2-5.1 2.4 4.4 3.2 7 4.2 10.9 0.4 0.3-0.2-1.4 0.2-0.6 0.1 0.6 0.2 2.5 0.6 2.8-0.3-1.9-0.8-4.2-1.2-4.6 0.3 0.2-0.5-2.3-1-2.9-0.2-1.6-1.6-4.4-2.8-6.5-4.3-8.4-12-15.3-20.6-19.1 0-0.2-0.5-0.4-0.7-0.6-8.5-3.6-18.7-4.6-28.5-2.3-9.9 2.4-19.2 8.1-25.8 16.3 0.3-1 2.8-2.9 2.9-3.7-2.9 3.1-6 7.2-8.1 11.6-2.2 4.4-3.4 8.9-3.9 12.2" fill="#a437db" fill-rule="nonzero" stroke="none" stroke-width="1" stroke-linecap="butt" stroke-linejoin="miter" stroke-miterlimit="10" stroke-dasharray="" stroke-dashoffset="0" font-family="none" font-weight="none" font-size="none" text-anchor="none" style="mix-blend-mode: normal" data-fill-palette-color="tertiary"></path></g><g transform="matrix(1,0,0,1,48,110.91470398063876)"><svg viewBox="0 0 224 138.17059203872248" height="138.17059203872248" width="224"><g><svg viewBox="0 0 225.11999999999998 138.86144499891606" height="138.17059203872248" width="224"><g><rect width="225.11999999999998" height="2.723372736" x="0" y="77.8419156722712" fill="#a437db" opacity="1" stroke-width="0" stroke="transparent" fill-opacity="1" class="rect-qz-0" data-fill-palette-color="secondary" rx="1%" id="qz-0" data-palette-color="#a437db"></rect></g><g transform="matrix(1,0,0,1,0.5599999999999881,87.6945364082712)"><svg viewBox="0 0 224 51.16690859064485" height="51.16690859064485" width="224"><g id="textblocktransform"><svg viewBox="0 0 224 51.16690859064485" height="51.16690859064485" width="224" id="textblock"><g><svg viewBox="0 0 224 30.19895287958115" height="30.19895287958115" width="224"><g transform="matrix(1,0,0,1,0,0)"><svg width="224" viewBox="4.05 -35.3 267.93 36.05" height="30.19895287958115" data-palette-color="#a437db"><g class="wordmark-text-0" data-fill-palette-color="primary" id="text-0"><path d="M21-18.3Q24.55-17.65 26.73-15.75 28.9-13.85 28.9-9.95L28.9-9.95Q28.9-4.55 25.1-2.27 21.3 0 14.45 0L14.45 0 4.05 0 4.05-34.55 13.1-34.55Q27.4-34.55 27.4-25.75L27.4-25.75Q27.4-22.7 25.55-20.78 23.7-18.85 21-18.3L21-18.3ZM13.75-29.7L10.65-29.7 10.65-20.35 14.7-20.35Q17.45-20.35 19.05-21.58 20.65-22.8 20.65-25.2L20.65-25.2Q20.65-27.7 18.98-28.7 17.3-29.7 13.75-29.7L13.75-29.7ZM14.5-4.95Q18.15-4.95 20.08-6.05 22-7.15 22-10.2L22-10.2Q22-13.15 20.18-14.45 18.35-15.75 15.2-15.75L15.2-15.75 10.65-15.75 10.65-4.95 14.5-4.95ZM47.95-35.3Q52.6-35.3 56-33.2 59.4-31.1 61.22-27.05 63.05-23 63.05-17.3L63.05-17.3Q63.05-11.65 61.2-7.6 59.35-3.55 55.95-1.4 52.55 0.75 47.95 0.75L47.95 0.75Q43.3 0.75 39.9-1.35 36.5-3.45 34.65-7.5 32.8-11.55 32.8-17.25L32.8-17.25Q32.8-22.85 34.65-26.93 36.5-31 39.92-33.15 43.35-35.3 47.95-35.3L47.95-35.3ZM47.95-30.25Q43.95-30.25 41.85-27.13 39.75-24 39.75-17.25L39.75-17.25Q39.75-4.3 47.95-4.3L47.95-4.3Q51.95-4.3 54.02-7.4 56.1-10.5 56.1-17.3L56.1-17.3Q56.1-24.05 54.02-27.15 51.95-30.25 47.95-30.25L47.95-30.25ZM82.5-35.3Q87.15-35.3 90.55-33.2 93.95-31.1 95.77-27.05 97.59-23 97.59-17.3L97.59-17.3Q97.59-11.65 95.75-7.6 93.9-3.55 90.5-1.4 87.1 0.75 82.5 0.75L82.5 0.75Q77.85 0.75 74.45-1.35 71.05-3.45 69.2-7.5 67.35-11.55 67.35-17.25L67.35-17.25Q67.35-22.85 69.2-26.93 71.05-31 74.47-33.15 77.9-35.3 82.5-35.3L82.5-35.3ZM82.5-30.25Q78.5-30.25 76.4-27.13 74.3-24 74.3-17.25L74.3-17.25Q74.3-4.3 82.5-4.3L82.5-4.3Q86.5-4.3 88.57-7.4 90.65-10.5 90.65-17.3L90.65-17.3Q90.65-24.05 88.57-27.15 86.5-30.25 82.5-30.25L82.5-30.25ZM103.79-34.55L110.39-34.55 110.39 0 103.79 0 103.79-34.55ZM122.64-34.55L129.79-34.55 117.84-18.9 130.74 0 122.89 0 110.69-18.45 122.64-34.55Z" fill="#a437db" data-fill-palette-color="primary"></path><path d="M172.59 0L165.59 0 163.44-8 151.99-8 149.84 0 142.99 0 153.74-34.55 161.89-34.55 172.59 0ZM157.69-29.5L153.29-13 162.09-13 157.69-29.5Z" fill="#a437db" data-fill-palette-color="primary"></path><path d="M199.09-35.3Q202.74-35.3 205.44-34.25 208.14-33.2 210.49-31.05L210.49-31.05 207.24-27.3Q205.39-28.85 203.51-29.55 201.64-30.25 199.49-30.25L199.49-30.25Q197.09-30.25 195.61-29.18 194.14-28.1 194.14-26.15L194.14-26.15Q194.14-24.85 194.71-24 195.29-23.15 196.79-22.4 198.29-21.65 201.24-20.75L201.24-20.75Q206.34-19.15 208.91-16.78 211.49-14.4 211.49-9.85L211.49-9.85Q211.49-6.75 209.91-4.35 208.34-1.95 205.39-0.6 202.44 0.75 198.39 0.75L198.39 0.75Q194.44 0.75 191.31-0.53 188.19-1.8 185.94-4L185.94-4 189.34-7.8Q191.34-6.1 193.49-5.23 195.64-4.35 198.24-4.35L198.24-4.35Q201.09-4.35 202.84-5.7 204.59-7.05 204.59-9.5L204.59-9.5Q204.59-11 203.99-11.98 203.39-12.95 201.94-13.73 200.49-14.5 197.74-15.35L197.74-15.35Q192.24-17.05 189.79-19.45 187.34-21.85 187.34-25.75L187.34-25.75Q187.34-28.6 188.84-30.75 190.34-32.9 193.01-34.1 195.69-35.3 199.09-35.3L199.09-35.3ZM227.34-34.55Q233.99-34.55 237.66-31.8 241.34-29.05 241.34-23.55L241.34-23.55Q241.34-17.8 237.64-14.93 233.94-12.05 227.79-12.05L227.79-12.05 223.74-12.05 223.74 0 217.14 0 217.14-34.55 227.34-34.55ZM227.29-17Q230.84-17 232.64-18.48 234.44-19.95 234.44-23.55L234.44-23.55Q234.44-29.7 227.29-29.7L227.29-29.7 223.74-29.7 223.74-17 227.29-17ZM271.98 0L264.98 0 262.83-8 251.38-8 249.23 0 242.38 0 253.13-34.55 261.28-34.55 271.98 0ZM257.08-29.5L252.68-13 261.48-13 257.08-29.5Z" fill="#a437db" data-fill-palette-color="primary"></path></g></svg></g></svg></g><g transform="matrix(1,0,0,1,0,37.328200879581146)"><svg viewBox="0 0 224 13.8387077110637" height="13.8387077110637" width="224"><g transform="matrix(1,0,0,1,0,0)"><svg width="224" viewBox="3.49 -37.99 800.95 49.49" height="13.8387077110637" data-palette-color="#a437db"><path d="M3.49 0L3.49-4.2 7.01-4.2 7.01-32.79 3.49-32.79 3.49-37.06 20.14-37.01Q22.39-37.01 24.37-36.17 26.34-35.33 27.81-33.87 29.27-32.42 30.11-30.44 30.96-28.47 30.96-26.2L30.96-26.2Q30.96-23.83 29.64-21.88 28.32-19.92 25.88-18.75L25.88-18.75Q27.08-18.12 28.05-17.27 29.03-16.43 29.71-15.43 30.4-14.43 30.77-13.31 31.15-12.18 31.15-11.01L31.15-11.01Q31.15-8.69 30.31-6.69 29.47-4.69 28-3.2 26.54-1.71 24.57-0.85 22.61 0 20.36 0L20.36 0 3.49 0ZM20.41-16.46L11.79-16.46 11.79-4.2 20.41-4.2Q21.58-4.2 22.58-4.79 23.58-5.37 24.34-6.31 25.1-7.25 25.52-8.45 25.95-9.64 25.95-10.89L25.95-10.89Q25.95-11.96 25.51-12.96 25.07-13.96 24.33-14.75 23.58-15.53 22.57-15.99 21.56-16.46 20.41-16.46L20.41-16.46ZM20.19-32.79L11.79-32.79 11.79-20.7 20.19-20.7Q21.36-20.7 22.38-21.17 23.39-21.63 24.13-22.41 24.88-23.19 25.32-24.22 25.76-25.24 25.76-26.34L25.76-26.34Q25.76-27.54 25.32-28.7 24.88-29.86 24.12-30.76 23.36-31.67 22.35-32.23 21.34-32.79 20.19-32.79L20.19-32.79ZM53.64-25.44L53.64-19.95 49-19.95 49-21.51Q48.19-21.51 47.35-21.2 46.51-20.9 45.77-20.28 45.04-19.65 44.49-18.69 43.94-17.72 43.7-16.41L43.7-16.41 43.7-4.2 48-4.2 48 0 35.45 0 35.45-4.2 38.94-4.2 38.96-21.09 35.45-21.09 35.45-25.29 43.53-25.29 43.53-21.8Q43.97-22.58 44.52-23.25 45.07-23.93 45.74-24.43 46.41-24.93 47.23-25.21 48.04-25.49 49-25.49L49-25.49Q50.27-25.49 51.39-25.49 52.51-25.49 53.64-25.44L53.64-25.44ZM58.54-12.65L58.54-12.65Q58.56-15.65 59.5-18.12 60.44-20.58 62.13-22.35 63.81-24.12 66.13-25.07 68.45-26.03 71.24-26.03L71.24-26.03Q74.04-26.03 76.37-25.07 78.71-24.12 80.37-22.38 82.03-20.63 82.95-18.16 83.88-15.7 83.88-12.7L83.88-12.7Q83.88-9.74 82.95-7.26 82.03-4.79 80.37-3 78.71-1.22 76.37-0.23 74.04 0.76 71.24 0.76L71.24 0.76Q68.38 0.76 66.06-0.22 63.74-1.2 62.08-2.97 60.42-4.74 59.49-7.2 58.56-9.67 58.54-12.65ZM63.35-12.65L63.35-12.65Q63.35-10.47 63.97-8.72 64.59-6.96 65.68-5.73 66.77-4.49 68.2-3.82 69.62-3.15 71.24-3.15L71.24-3.15Q72.92-3.15 74.37-3.81 75.83-4.47 76.9-5.7 77.97-6.93 78.58-8.69 79.19-10.45 79.19-12.65L79.19-12.65Q79.19-14.94 78.58-16.72 77.97-18.51 76.91-19.7 75.85-20.9 74.38-21.51 72.92-22.12 71.24-22.12L71.24-22.12Q69.62-22.12 68.2-21.51 66.77-20.9 65.68-19.7 64.59-18.51 63.97-16.72 63.35-14.94 63.35-12.65ZM86.83-21.09L86.83-25.29 94.84-25.29 94.84-21.09 93.67-21.09 98.09-4.96 104.14-25.29 107.95-25.29 113.74-5 118.35-21.09 116.89-21.09 116.89-25.29 124.89-25.29 124.89-21.09 122.72-21.09 115.79 0.39 111.59 0.39 105.85-19.8 100.14 0.39 95.89 0.39 89.01-21.09 86.83-21.09ZM143.42-18.51Q143.42-19.53 142.95-20.25 142.47-20.97 141.71-21.42 140.96-21.88 140.03-22.08 139.1-22.29 138.22-22.29L138.22-22.29Q137.25-22.29 136.43-22.07 135.61-21.85 135.02-21.44 134.44-21.02 134.11-20.42 133.78-19.82 133.78-19.09L133.78-19.09Q133.78-17.82 134.55-17.08 135.32-16.33 137.12-15.7L137.12-15.7 141.98-13.99Q145.11-12.94 146.55-11.13 147.99-9.33 147.99-6.81L147.99-6.81Q147.99-5.13 147.32-3.72 146.65-2.32 145.41-1.33 144.18-0.34 142.45 0.21 140.71 0.76 138.59 0.76L138.59 0.76Q135.63 0.76 133.78-0.2 131.92-1.15 130.92-2.71L130.92-2.71 128.38-2.71 128.38-6.91 133.44-6.91Q133.44-5.86 133.89-5.11 134.34-4.37 135.09-3.91 135.83-3.44 136.77-3.22 137.71-3 138.69-3L138.69-3Q139.64-3 140.52-3.23 141.4-3.47 142.07-3.92 142.74-4.37 143.13-5 143.52-5.64 143.52-6.45L143.52-6.45Q143.52-7.67 142.73-8.52 141.93-9.38 140.03-10.06L140.03-10.06 135.2-11.87Q132.24-12.92 130.81-14.54 129.38-16.16 129.38-18.6L129.38-18.6Q129.38-20.21 129.98-21.58 130.58-22.95 131.72-23.94 132.85-24.93 134.49-25.49 136.12-26.05 138.22-26.05L138.22-26.05Q140.93-26.05 142.76-25.29 144.59-24.54 146.06-22.71L146.06-22.71 148.43-22.71 148.43-18.51 143.42-18.51ZM175.57-12.06L157.36-12.06Q157.36-10.99 157.52-10.1 157.68-9.2 157.97-8.4L157.97-8.4Q158.87-5.96 160.86-4.72 162.85-3.49 165.37-3.49L165.37-3.49Q167.35-3.49 169.21-4.04 171.08-4.59 173.13-5.76L173.13-5.76 174.96-2.66Q172.47-0.95 169.96-0.12 167.44 0.71 164.73 0.71L164.73 0.71Q162.17 0.71 159.99-0.15 157.8-1 156.23-2.69 154.65-4.37 153.76-6.88 152.87-9.4 152.87-12.74L152.87-12.74Q152.87-15.45 153.63-17.86 154.38-20.26 155.88-22.06 157.38-23.85 159.61-24.9 161.83-25.95 164.78-25.95L164.78-25.95Q167.64-25.95 169.56-25.09 171.47-24.22 172.68-22.79 173.89-21.36 174.51-19.53 175.13-17.7 175.38-15.8L175.38-15.8Q175.5-14.87 175.54-13.92 175.57-12.96 175.57-12.06L175.57-12.06ZM164.47-22.14L164.47-22.14Q162.88-22.14 161.69-21.69 160.51-21.24 159.68-20.4 158.85-19.56 158.35-18.33 157.85-17.11 157.6-15.6L157.6-15.6 170.72-15.6Q170.62-17.02 170.26-18.21 169.91-19.41 169.18-20.29 168.44-21.17 167.3-21.66 166.15-22.14 164.47-22.14ZM179.31 0Q179.31 0 179.31 0ZM215.63 0L215.63-4.2 218.71-4.2 215.78-12.6 201.55-12.6 198.69-4.2 202.5-4.2 202.5 0 190.49 0 190.49-4.2 193.71-4.2 205.23-37.01 212.43-37.01 223.93-4.2 227.64-4.2 227.64 0 215.63 0ZM208.6-33.2L202.94-16.65 214.36-16.65 208.6-33.2ZM246.98 0L246.98-4.2 250.54-4.2 250.54-15.75Q250.54-18.65 249.06-20.15 247.59-21.66 244.83-21.66L244.83-21.66Q243.24-21.66 241.63-20.9 240.02-20.14 238.58-19.02L238.58-19.02 238.58-4.2 242.14-4.2 242.14 0 230.33 0 230.33-4.2 233.84-4.2 233.84-21.09 230.33-21.09 230.33-25.29 238.38-25.29 238.38-22.31 238.43-22.31Q239.24-23.02 240.15-23.66 241.07-24.29 242.07-24.76 243.07-25.22 244.16-25.49 245.24-25.76 246.44-25.76L246.44-25.76Q248.47-25.76 250.1-25.2 251.74-24.63 252.89-23.49 254.03-22.34 254.66-20.54 255.28-18.75 255.28-16.31L255.28-16.31 255.28-4.2 258.79-4.2 258.79 0 246.98 0ZM278.59-33.79L278.59-37.99 286.57-37.99 286.57-4.2 290.29-4.2 290.29 0 282.03 0 282.03-2.08Q280.81-0.83 279.2-0.13 277.59 0.56 275.54 0.56L275.54 0.56Q272.98 0.56 270.77-0.33 268.56-1.22 266.93-2.94 265.31-4.66 264.39-7.17 263.48-9.67 263.48-12.89L263.48-12.89Q263.48-15.82 264.36-18.23 265.24-20.63 266.85-22.33 268.46-24.02 270.73-24.96 273-25.9 275.78-25.9L275.78-25.9Q277.61-25.9 279.13-25.5 280.64-25.1 282.03-24.1L282.03-24.1 282.03-33.79 278.59-33.79ZM276.12-3.39L276.12-3.39Q278.15-3.39 279.52-3.99 280.89-4.59 282.03-5.79L282.03-5.79 282.03-19.95Q280.81-20.97 279.23-21.44 277.64-21.9 275.98-21.9L275.98-21.9Q274.37-21.9 272.95-21.3 271.54-20.7 270.47-19.56 269.41-18.41 268.8-16.75 268.19-15.09 268.19-12.94L268.19-12.94Q268.19-10.6 268.78-8.81 269.36-7.03 270.41-5.82 271.46-4.61 272.93-4 274.39-3.39 276.12-3.39ZM292.19 0Q292.19 0 292.19 0ZM325.58-26.95Q325.58-29.1 324.8-30.18 324.02-31.25 323.08-31.82 322.14-32.4 321.02-32.7 319.89-33.01 318.77-33.01L318.77-33.01Q316.92-33.01 315.52-32.58 314.13-32.15 313.22-31.42 312.3-30.69 311.84-29.71 311.37-28.74 311.37-27.66L311.37-27.66Q311.37-26.05 311.95-25.06 312.52-24.07 313.4-23.47 314.28-22.88 315.34-22.53 316.4-22.19 317.38-21.85L317.38-21.85 322.31-20.24Q324.53-19.53 326.23-18.63 327.93-17.72 329.07-16.49 330.22-15.26 330.82-13.65 331.42-12.04 331.42-9.91L331.42-9.91Q331.42-7.62 330.48-5.66 329.54-3.71 327.85-2.27 326.17-0.83 323.84-0.01 321.51 0.81 318.72 0.81L318.72 0.81Q315.87 0.81 313.84 0.16 311.81-0.49 310.43-1.57 309.05-2.66 308.22-4.05 307.39-5.44 306.93-6.91L306.93-6.91 305.08-6.91 305.08-11.11 311.23-11.11Q311.23-8.4 311.8-7.28 312.37-6.15 313.4-5.41 314.43-4.66 315.84-4.28 317.26-3.91 318.97-3.91L318.97-3.91Q320.63-3.91 321.96-4.3 323.29-4.69 324.23-5.43 325.17-6.18 325.67-7.24 326.17-8.3 326.17-9.64L326.17-9.64Q326.17-11.13 325.55-12.17 324.92-13.21 323.95-13.94 322.97-14.67 321.81-15.14 320.65-15.6 319.58-15.94L319.58-15.94 314.23-17.46Q312.47-17.99 311.02-18.82 309.57-19.65 308.53-20.85 307.49-22.05 306.93-23.65 306.37-25.24 306.37-27.34L306.37-27.34Q306.37-29.47 307.2-31.32 308.03-33.18 309.64-34.57 311.25-35.96 313.58-36.76 315.91-37.55 318.92-37.55L318.92-37.55Q320.9-37.55 322.57-37.08 324.24-36.62 325.6-35.78 326.95-34.94 327.99-33.75 329.03-32.57 329.73-31.15L329.73-31.15 331.56-31.15 331.56-26.95 325.58-26.95ZM334.76-12.65L334.76-12.65Q334.78-15.65 335.72-18.12 336.66-20.58 338.35-22.35 340.03-24.12 342.35-25.07 344.67-26.03 347.46-26.03L347.46-26.03Q350.26-26.03 352.59-25.07 354.93-24.12 356.59-22.38 358.25-20.63 359.17-18.16 360.1-15.7 360.1-12.7L360.1-12.7Q360.1-9.74 359.17-7.26 358.25-4.79 356.59-3 354.93-1.22 352.59-0.23 350.26 0.76 347.46 0.76L347.46 0.76Q344.6 0.76 342.28-0.22 339.96-1.2 338.3-2.97 336.64-4.74 335.71-7.2 334.78-9.67 334.76-12.65ZM339.57-12.65L339.57-12.65Q339.57-10.47 340.19-8.72 340.81-6.96 341.9-5.73 342.99-4.49 344.42-3.82 345.84-3.15 347.46-3.15L347.46-3.15Q349.14-3.15 350.59-3.81 352.05-4.47 353.12-5.7 354.19-6.93 354.8-8.69 355.41-10.45 355.41-12.65L355.41-12.65Q355.41-14.94 354.8-16.72 354.19-18.51 353.13-19.7 352.07-20.9 350.6-21.51 349.14-22.12 347.46-22.12L347.46-22.12Q345.84-22.12 344.42-21.51 342.99-20.9 341.9-19.7 340.81-18.51 340.19-16.72 339.57-14.94 339.57-12.65ZM364.66-12.65L364.66-12.65Q364.69-15.65 365.63-18.12 366.57-20.58 368.25-22.35 369.94-24.12 372.26-25.07 374.58-26.03 377.36-26.03L377.36-26.03Q380.17-26.03 382.5-25.07 384.83-24.12 386.49-22.38 388.15-20.63 389.08-18.16 390.01-15.7 390.01-12.7L390.01-12.7Q390.01-9.74 389.08-7.26 388.15-4.79 386.49-3 384.83-1.22 382.5-0.23 380.17 0.76 377.36 0.76L377.36 0.76Q374.5 0.76 372.18-0.22 369.86-1.2 368.2-2.97 366.54-4.74 365.62-7.2 364.69-9.67 364.66-12.65ZM369.47-12.65L369.47-12.65Q369.47-10.47 370.1-8.72 370.72-6.96 371.81-5.73 372.89-4.49 374.32-3.82 375.75-3.15 377.36-3.15L377.36-3.15Q379.04-3.15 380.5-3.81 381.95-4.47 383.02-5.7 384.1-6.93 384.71-8.69 385.32-10.45 385.32-12.65L385.32-12.65Q385.32-14.94 384.71-16.72 384.1-18.51 383.04-19.7 381.97-20.9 380.51-21.51 379.04-22.12 377.36-22.12L377.36-22.12Q375.75-22.12 374.32-21.51 372.89-20.9 371.81-19.7 370.72-18.51 370.1-16.72 369.47-14.94 369.47-12.65ZM402.24-33.45L402.24-25.29 408.17-25.29 408.17-21.61 402.19-21.61 402.11-7.01Q402.11-5.52 402.46-4.59 402.8-3.66 403.55-3.31 404.31-2.95 405.26-2.95L405.26-2.95Q406.29-2.95 407.07-3.14 407.85-3.32 408.78-3.76L408.78-3.76 409.83-0.71Q408.66-0.1 407.36 0.26 406.07 0.61 404.31 0.61L404.31 0.61Q402.65 0.61 401.42 0.21 400.18-0.2 399.34-1.15 398.5-2.1 398.09-3.7 397.67-5.3 397.67-7.69L397.67-7.69 397.74-21.61 393.72-21.61 393.72-25.29 397.79-25.29 397.79-31.35 402.24-33.45ZM413.85-33.79L413.85-37.99 421.86-37.99 421.86-22.51 422.01-22.51Q422.69-23.19 423.58-23.79 424.47-24.39 425.45-24.83 426.43-25.27 427.48-25.51 428.53-25.76 429.67-25.76L429.67-25.76Q431.7-25.76 433.34-25.2 434.97-24.63 436.12-23.49 437.27-22.34 437.89-20.54 438.51-18.75 438.51-16.31L438.51-16.31 438.51-4.2 442.32-4.2 442.32 0 430.31 0 430.31-4.2 433.78-4.2 433.78-15.75Q433.78-18.65 432.3-20.15 430.82-21.66 428.06-21.66L428.06-21.66Q426.5-21.66 424.89-20.91 423.28-20.17 421.86-19.04L421.86-19.04 421.86-4.2 425.52-4.2 425.52 0 413.51 0 413.51-4.2 417.32-4.2 417.32-33.79 413.85-33.79ZM446.47-22.14L446.47-22.14Q446.47-22.78 446.73-23.35 446.98-23.93 447.42-24.35 447.86-24.78 448.43-25.04 449.01-25.29 449.67-25.29L449.67-25.29Q450.3-25.29 450.88-25.04 451.45-24.78 451.88-24.35 452.3-23.93 452.56-23.35 452.82-22.78 452.82-22.14L452.82-22.14Q452.82-21.48 452.56-20.9 452.3-20.31 451.88-19.87 451.45-19.43 450.88-19.17 450.3-18.9 449.67-18.9L449.67-18.9Q449.01-18.9 448.43-19.17 447.86-19.43 447.42-19.87 446.98-20.31 446.73-20.9 446.47-21.48 446.47-22.14ZM446.47-2.95L446.47-2.95Q446.47-3.59 446.73-4.16 446.98-4.74 447.42-5.16 447.86-5.59 448.43-5.85 449.01-6.1 449.67-6.1L449.67-6.1Q450.3-6.1 450.88-5.85 451.45-5.59 451.88-5.16 452.3-4.74 452.56-4.16 452.82-3.59 452.82-2.95L452.82-2.95Q452.82-2.29 452.56-1.71 452.3-1.12 451.88-0.67 451.45-0.22 450.88 0.04 450.3 0.29 449.67 0.29L449.67 0.29Q449.01 0.29 448.43 0.04 447.86-0.22 447.42-0.67 446.98-1.12 446.73-1.71 446.47-2.29 446.47-2.95ZM456.92 0Q456.92 0 456.92 0ZM471.34-32.79L471.34-37.01 497.86-37.01 497.86-26.54 492.85-26.54 492.85-32.79 479.64-32.79 479.64-20.9 492.36-20.9 492.36-16.8 479.64-16.8 479.64-4.2 483.35-4.2 483.35 0 471.34 0 471.34-4.2 474.86-4.2 474.86-32.79 471.34-32.79ZM500.44-21.09L500.44-25.29 508.69-25.29 508.69-4.2 512.5-4.2 512.5 0 500.49 0 500.49-4.2 504.1-4.2 504.1-21.09 500.44-21.09ZM503.25-34.25L503.25-34.25Q503.25-34.89 503.5-35.46 503.76-36.04 504.19-36.46 504.62-36.89 505.2-37.15 505.79-37.4 506.45-37.4L506.45-37.4Q507.08-37.4 507.66-37.15 508.23-36.89 508.66-36.46 509.08-36.04 509.34-35.46 509.6-34.89 509.6-34.25L509.6-34.25Q509.6-33.59 509.34-33.01 509.08-32.42 508.66-31.97 508.23-31.52 507.66-31.26 507.08-31.01 506.45-31.01L506.45-31.01Q505.79-31.01 505.2-31.26 504.62-31.52 504.19-31.97 503.76-32.42 503.5-33.01 503.25-33.59 503.25-34.25ZM533.32 0L533.32-4.2 536.89-4.2 536.89-15.75Q536.89-18.65 535.41-20.15 533.93-21.66 531.18-21.66L531.18-21.66Q529.59-21.66 527.98-20.9 526.37-20.14 524.93-19.02L524.93-19.02 524.93-4.2 528.49-4.2 528.49 0 516.67 0 516.67-4.2 520.19-4.2 520.19-21.09 516.67-21.09 516.67-25.29 524.73-25.29 524.73-22.31 524.78-22.31Q525.58-23.02 526.5-23.66 527.42-24.29 528.42-24.76 529.42-25.22 530.5-25.49 531.59-25.76 532.79-25.76L532.79-25.76Q534.81-25.76 536.45-25.2 538.08-24.63 539.23-23.49 540.38-22.34 541-20.54 541.62-18.75 541.62-16.31L541.62-16.31 541.62-4.2 545.14-4.2 545.14 0 533.32 0ZM564.94-33.79L564.94-37.99 572.92-37.99 572.92-4.2 576.63-4.2 576.63 0 568.38 0 568.38-2.08Q567.16-0.83 565.55-0.13 563.94 0.56 561.89 0.56L561.89 0.56Q559.32 0.56 557.11-0.33 554.9-1.22 553.28-2.94 551.66-4.66 550.74-7.17 549.83-9.67 549.83-12.89L549.83-12.89Q549.83-15.82 550.7-18.23 551.58-20.63 553.19-22.33 554.81-24.02 557.08-24.96 559.35-25.9 562.13-25.9L562.13-25.9Q563.96-25.9 565.47-25.5 566.99-25.1 568.38-24.1L568.38-24.1 568.38-33.79 564.94-33.79ZM562.47-3.39L562.47-3.39Q564.5-3.39 565.87-3.99 567.23-4.59 568.38-5.79L568.38-5.79 568.38-19.95Q567.16-20.97 565.57-21.44 563.99-21.9 562.33-21.9L562.33-21.9Q560.71-21.9 559.3-21.3 557.88-20.7 556.82-19.56 555.76-18.41 555.15-16.75 554.54-15.09 554.54-12.94L554.54-12.94Q554.54-10.6 555.12-8.81 555.71-7.03 556.76-5.82 557.81-4.61 559.27-4 560.74-3.39 562.47-3.39ZM578.53 0Q578.53 0 578.53 0ZM590.71-32.79L590.71-37.01 602.73-37.01 602.73-32.79 599.21-32.79 606.17-20.9 613.61-32.79 609.76-32.79 609.76-37.01 621.77-37.01 621.77-32.79 618.62-32.79 608.22-17.02 608.22-4.2 612.03-4.2 612.03 0 600.02 0 600.02-4.2 603.41-4.2 603.41-17.14 593.59-32.79 590.71-32.79ZM624.62-12.65L624.62-12.65Q624.65-15.65 625.59-18.12 626.53-20.58 628.21-22.35 629.9-24.12 632.22-25.07 634.53-26.03 637.32-26.03L637.32-26.03Q640.13-26.03 642.46-25.07 644.79-24.12 646.45-22.38 648.11-20.63 649.04-18.16 649.96-15.7 649.96-12.7L649.96-12.7Q649.96-9.74 649.04-7.26 648.11-4.79 646.45-3 644.79-1.22 642.46-0.23 640.13 0.76 637.32 0.76L637.32 0.76Q634.46 0.76 632.14-0.22 629.82-1.2 628.16-2.97 626.5-4.74 625.57-7.2 624.65-9.67 624.62-12.65ZM629.43-12.65L629.43-12.65Q629.43-10.47 630.05-8.72 630.68-6.96 631.76-5.73 632.85-4.49 634.28-3.82 635.71-3.15 637.32-3.15L637.32-3.15Q639-3.15 640.46-3.81 641.91-4.47 642.98-5.7 644.06-6.93 644.67-8.69 645.28-10.45 645.28-12.65L645.28-12.65Q645.28-14.94 644.67-16.72 644.06-18.51 642.99-19.7 641.93-20.9 640.47-21.51 639-22.12 637.32-22.12L637.32-22.12Q635.71-22.12 634.28-21.51 632.85-20.9 631.76-19.7 630.68-18.51 630.05-16.72 629.43-14.94 629.43-12.65ZM670.1-21.09L670.1-25.29 678.26-25.29 678.26-4.2 681.07-4.2 681.07 0 673.69 0 673.69-2.34Q671.98-1.03 669.97-0.29 667.96 0.44 665.66 0.44L665.66 0.44Q663.76 0.44 662.21-0.11 660.66-0.66 659.57-1.82 658.48-2.98 657.9-4.76 657.31-6.54 657.31-9.01L657.31-9.01 657.31-21.09 653.89-21.09 653.89-25.29 662.05-25.29 662.05-9.55Q662.05-6.64 663.39-5.15 664.73-3.66 667.25-3.66L667.25-3.66Q668.74-3.66 670.38-4.2 672.03-4.74 673.5-5.69L673.5-5.69 673.5-21.09 670.1-21.09ZM706.01-25.44L706.01-19.95 701.38-19.95 701.38-21.51Q700.57-21.51 699.73-21.2 698.89-20.9 698.15-20.28 697.42-19.65 696.87-18.69 696.32-17.72 696.08-16.41L696.08-16.41 696.08-4.2 700.37-4.2 700.37 0 687.83 0 687.83-4.2 691.32-4.2 691.34-21.09 687.83-21.09 687.83-25.29 695.91-25.29 695.91-21.8Q696.35-22.58 696.9-23.25 697.44-23.93 698.12-24.43 698.79-24.93 699.61-25.21 700.42-25.49 701.38-25.49L701.38-25.49Q702.64-25.49 703.77-25.49 704.89-25.49 706.01-25.44L706.01-25.44ZM708.82 0Q708.82 0 708.82 0ZM742.22-26.95Q742.22-29.1 741.43-30.18 740.65-31.25 739.71-31.82 738.77-32.4 737.65-32.7 736.53-33.01 735.4-33.01L735.4-33.01Q733.55-33.01 732.16-32.58 730.76-32.15 729.85-31.42 728.93-30.69 728.47-29.71 728.01-28.74 728.01-27.66L728.01-27.66Q728.01-26.05 728.58-25.06 729.15-24.07 730.03-23.47 730.91-22.88 731.97-22.53 733.04-22.19 734.01-21.85L734.01-21.85 738.94-20.24Q741.17-19.53 742.86-18.63 744.56-17.72 745.71-16.49 746.85-15.26 747.45-13.65 748.05-12.04 748.05-9.91L748.05-9.91Q748.05-7.62 747.11-5.66 746.17-3.71 744.49-2.27 742.8-0.83 740.47-0.01 738.14 0.81 735.35 0.81L735.35 0.81Q732.5 0.81 730.47 0.16 728.45-0.49 727.07-1.57 725.69-2.66 724.86-4.05 724.03-5.44 723.56-6.91L723.56-6.91 721.71-6.91 721.71-11.11 727.86-11.11Q727.86-8.4 728.43-7.28 729.01-6.15 730.03-5.41 731.06-4.66 732.47-4.28 733.89-3.91 735.6-3.91L735.6-3.91Q737.26-3.91 738.59-4.3 739.92-4.69 740.86-5.43 741.8-6.18 742.3-7.24 742.8-8.3 742.8-9.64L742.8-9.64Q742.8-11.13 742.18-12.17 741.56-13.21 740.58-13.94 739.6-14.67 738.44-15.14 737.28-15.6 736.21-15.94L736.21-15.94 730.86-17.46Q729.1-17.99 727.65-18.82 726.2-19.65 725.16-20.85 724.12-22.05 723.56-23.65 723-25.24 723-27.34L723-27.34Q723-29.47 723.83-31.32 724.66-33.18 726.27-34.57 727.88-35.96 730.22-36.76 732.55-37.55 735.55-37.55L735.55-37.55Q737.53-37.55 739.2-37.08 740.87-36.62 742.23-35.78 743.58-34.94 744.62-33.75 745.66-32.57 746.37-31.15L746.37-31.15 748.2-31.15 748.2-26.95 742.22-26.95ZM750.73-21.09L750.73-25.29 758.79-25.29 758.79-23.19Q760.4-24.44 762.31-25.17 764.21-25.9 766.24-25.9L766.24-25.9Q768.73-25.9 770.8-24.98 772.88-24.05 774.38-22.36 775.88-20.68 776.71-18.32 777.54-15.97 777.54-13.11L777.54-13.11Q777.54-10.06 776.61-7.54 775.68-5.03 774.04-3.23 772.39-1.44 770.12-0.44 767.85 0.56 765.14 0.56L765.14 0.56Q763.21 0.56 761.71 0.16 760.21-0.24 758.84-0.88L758.84-0.88 758.84 7.3 762.79 7.3 762.79 11.5 750.78 11.5 750.78 7.3 754.25 7.3 754.25-21.09 750.73-21.09ZM765.04-21.9L765.04-21.9Q763.28-21.9 761.66-21.19 760.03-20.48 758.84-19.24L758.84-19.24 758.84-5.54Q759.64-4.71 761.15-4.05 762.65-3.39 764.89-3.39L764.89-3.39Q766.46-3.39 767.9-4 769.34-4.61 770.44-5.82 771.53-7.03 772.19-8.81 772.85-10.6 772.85-12.94L772.85-12.94Q772.85-15.09 772.23-16.75 771.61-18.41 770.55-19.56 769.48-20.7 768.07-21.3 766.65-21.9 765.04-21.9ZM797.09 0L797.09-2.34Q795.65-1 793.91-0.15 792.16 0.71 789.94 0.71L789.94 0.71Q788.08 0.71 786.53 0.12 784.98-0.46 783.86-1.48 782.74-2.49 782.11-3.83 781.49-5.18 781.49-6.69L781.49-6.69Q781.49-8.3 781.97-9.55 782.44-10.79 783.24-11.71 784.03-12.62 785.09-13.24 786.16-13.87 787.32-14.25 788.47-14.62 789.68-14.78 790.89-14.94 791.99-14.94L791.99-14.94Q793.75-14.94 794.94-14.83 796.14-14.72 797.12-14.53L797.12-14.53 797.14-16.6Q797.14-17.94 796.75-18.93 796.36-19.92 795.65-20.57 794.94-21.22 793.96-21.53 792.97-21.85 791.75-21.85L791.75-21.85Q790.6-21.85 789.55-21.69 788.5-21.53 787.58-21.28 786.67-21.02 785.9-20.69 785.13-20.36 784.59-20L784.59-20 783.1-23.14Q784.01-23.73 785.08-24.23 786.16-24.73 787.34-25.09 788.52-25.44 789.76-25.65 790.99-25.85 792.19-25.85L792.19-25.85Q794.38-25.85 796.14-25.33 797.9-24.8 799.12-23.71 800.34-22.61 801-20.91 801.66-19.21 801.66-16.85L801.66-16.85 801.63-4.2 804.44-4.2 804.44 0 797.09 0ZM790.94-3.1L790.94-3.1Q791.84-3.1 792.75-3.32 793.65-3.54 794.46-3.92 795.26-4.3 795.95-4.8 796.63-5.3 797.09-5.83L797.09-5.83 797.12-11.55 791.84-11.55Q790.53-11.55 789.44-11.25 788.35-10.96 787.56-10.4 786.77-9.84 786.33-9.01 785.89-8.18 785.89-7.1L785.89-7.1Q785.89-6.1 786.25-5.36 786.62-4.61 787.29-4.11 787.96-3.61 788.89-3.36 789.82-3.1 790.94-3.1Z" opacity="1" transform="matrix(1,0,0,1,0,0)" fill="#a437db" class="slogan-text-1" data-fill-palette-color="secondary" id="text-1"></path></svg></g></svg></g></svg></g></svg></g><g transform="matrix(1,0,0,1,83.6502641693094,0)"><svg viewBox="0 0 57.81947166138118 70.7126676722712" height="70.7126676722712" width="57.81947166138118"><g><svg xmlns="http://www.w3.org/2000/svg" xmlns:xlink="http://www.w3.org/1999/xlink" version="1.1" x="8" y="0" viewBox="23.386999999999997 5 53.226 90" enable-background="new 0 0 100 100" xml:space="preserve" height="70.7126676722712" width="41.81947166138118" class="icon-icon-0" data-fill-palette-color="accent" id="icon-0"><path fill="#a437db" d="M50.002 29.055c-8.111 0-14.68 6.573-14.68 14.681 0 8.106 6.569 14.68 14.68 14.68 8.105 0 14.68-6.573 14.68-14.68C64.682 35.628 58.107 29.055 50.002 29.055zM33.353 40.106c0-10.803 10.506-19.098 19.161-19.559 9.096-0.482 15.116 4.426 17.707 11.315 0-0.096 0.014-0.19 0.014-0.285 0-11.176-9.061-20.232-20.232-20.232-11.176 0-20.232 9.057-20.232 20.232 0 4.445 1.45 8.546 3.884 11.888C33.467 42.37 33.353 41.255 33.353 40.106zM69.03 37.896c0-8.107-6.57-14.678-14.68-14.678-4.77 0-8.997 2.284-11.679 5.81 2.209-1.102 4.692-1.736 7.33-1.736 9.082 0 16.444 7.36 16.444 16.444 0 0.965-0.102 1.899-0.258 2.819C67.969 44.122 69.03 41.137 69.03 37.896zM64.979 14.739C62.424 9.005 56.684 5 50.002 5c-6.688 0-12.426 4.005-14.979 9.739 3.969-3.579 9.211-5.778 14.979-5.778C55.769 8.961 61.008 11.16 64.979 14.739zM76.439 89.271c0.106-0.979 0.174-1.97 0.174-2.977 0-14.699-11.915-26.613-26.611-26.613-14.7 0-26.615 11.914-26.615 26.613 0 1.007 0.069 1.997 0.178 2.977H76.439zM75.629 90.645H24.372c-0.542 0-0.985 0.444-0.985 0.982v2.387c0 0.544 0.443 0.986 0.985 0.986h51.257c0.542 0 0.984-0.442 0.984-0.986v-2.387C76.613 91.089 76.171 90.645 75.629 90.645z" data-fill-palette-color="accent"></path></svg></g></svg></g><g><rect width="40.3062641693094" height="2.723372736" y="66.9892949362712" x="141.46973583069058" fill="#a437db" data-fill-palette-color="secondary"></rect><rect width="40.3062641693094" height="2.723372736" y="66.9892949362712" x="43.343999999999994" fill="#a437db" data-fill-palette-color="secondary"></rect></g></svg></g></svg></g></svg></g><defs></defs></svg><rect width="320" height="360" fill="none" stroke="none" visibility="hidden"></rect></g></svg></g></svg>